<svg xmlns="http://www.w3.org/2000/svg" viewBox="0 0 168 168">
  <circle cx="84" cy="84" r="84" fill="#1DB954"/>
  <path fill="#FFFFFF" d="M120.0,107.3 C118.5,109.8 115.3,110.6 112.8,109.1
    C94.4,98.0 70.6,95.5 42.3,102.2
    C39.5,102.9 36.7,101.1 36.0,98.3
    C35.3,95.5 37.1,92.7 39.9,92.0
    C70.9,84.7 97.2,87.6 118.0,100.3
    C120.5,101.8 121.4,104.8 120.0,107.3 Z"/>
  <path fill="#FFFFFF" d="M130.0,86.2 C128.1,89.3 124.1,90.3 121.0,88.4
    C99.4,75.1 66.7,71.2 41.1,79.3
    C37.6,80.3 34.0,78.4 33.0,74.9
    C32.0,71.4 33.9,67.8 37.4,66.8
    C66.8,57.7 103.3,62.1 128.2,77.4
    C131.3,79.3 132.3,83.1 130.0,86.2 Z"/>
  <path fill="#FFFFFF" d="M130.9,64.8 C105.4,50.0 63.9,48.6 39.6,56.2
    C35.5,57.5 31.2,55.1 29.9,51.0
    C28.6,46.9 31.1,42.6 35.2,41.3
    C63.5,32.4 109.5,34.0 138.9,51.1
    C142.6,53.2 143.8,57.9 141.7,61.6
    C139.6,65.3 134.9,66.6 130.9,64.8 Z"/>
</svg>