<svg xmlns="http://www.w3.org/2000/svg" viewBox="0 0 75 75">
  <defs>
    <linearGradient id="neteaseGrad" x1="0%" y1="0%" x2="100%" y2="100%">
      <stop offset="0%" style="stop-color:#E82C2C;stop-opacity:1"/>
      <stop offset="100%" style="stop-color:#D42C2C;stop-opacity:1"/>
    </linearGradient>
  </defs>
  <rect width="75" height="75" rx="16.5" fill="url(#neteaseGrad)"/>
  <!-- Cloud shape with music note -->
  <g fill="#FFFFFF" transform="translate(15, 15) scale(0.6)">
    <!-- Cloud body -->
    <path d="M 30,20
             C 20,20 15,30 15,40
             C 10,40 5,45 5,50
             C 5,60 15,65 25,65
             C 35,65 45,60 45,50
             C 50,50 55,45 55,40
             C 55,30 45,25 35,25
             Z"/>
    <!-- Music note -->
    <path d="M 30,35
             L 35,30
             L 35,45
             C 34,43 32,42 30,42
             C 27,42 25,44 25,47
             C 25,50 27,52 30,52
             C 33,52 35,50 35,47
             Z"/>
  </g>
</svg>